<?xml version="1.0" encoding="UTF-8"?>
<svg id="Layer_1" xmlns="http://www.w3.org/2000/svg" version="1.1" viewBox="0 0 64 64">
  <!-- Generator: Adobe Illustrator 29.6.1, SVG Export Plug-In . SVG Version: 2.1.1 Build 9)  -->
  <path d="M52.12,41.54c-.32,0-.64-.05-.96-.16-1.57-.53-2.41-2.24-1.88-3.8.42-1.24.63-2.44.63-3.56,0-.83-.12-1.61-.35-2.31-.53-1.57.32-3.27,1.89-3.8,1.57-.53,3.27.32,3.8,1.89.44,1.31.66,2.73.66,4.22,0,1.78-.32,3.63-.95,5.49-.42,1.25-1.59,2.04-2.84,2.04ZM46.96,28.38c-.33,0-.67-.06-1-.17-.39-.14-.8-.25-1.23-.34-3.04-.61-5.24-1.46-6.93-2.68-1.35-.97-1.65-2.84-.68-4.19.97-1.35,2.84-1.65,4.19-.69.95.68,2.5,1.24,4.61,1.66.71.14,1.41.33,2.06.56,1.56.55,2.38,2.27,1.83,3.83-.44,1.23-1.59,2-2.83,2ZM35.16,19.26c-.92,0-1.82-.42-2.41-1.21-.4-.54-.88-1.02-1.47-1.48-.89-.69-1.84-1.05-2.93-1.09-1.66-.07-2.94-1.47-2.87-3.13.07-1.65,1.45-2.93,3.13-2.86,2.33.1,4.47.89,6.34,2.35,1.02.79,1.87,1.65,2.6,2.63.99,1.33.71,3.21-.61,4.2-.54.4-1.17.59-1.79.59Z"/>
  <path d="M50.07,43.07c-1.25-1.09-3.14-.95-4.23.3-.66.76-1.39,1.49-2.18,2.18,0,0,0,0,0,0-5.83,5.08-9.51,3.1-17.29-1.88-1.83-1.17-3.72-2.38-5.81-3.54-2.02-1.12-3.3-2.73-3.89-4.89-.47-1.7-.47-3.65-.16-5.62.36.04.72.07,1.09.07,5.24,0,9.5-4.26,9.5-9.5s-4.26-9.5-9.5-9.5-9.5,4.26-9.5,9.5c0,2.63,1.07,5.01,2.8,6.73-.73,3.26-.88,6.71-.01,9.9,1.01,3.7,3.35,6.66,6.76,8.55,1.92,1.07,3.74,2.23,5.49,3.35,4.49,2.87,9.07,5.8,14.09,5.8,3.24,0,6.67-1.22,10.38-4.45,0,0,0,0,0,0,.99-.87,1.92-1.8,2.76-2.76,1.09-1.25.95-3.15-.3-4.23ZM17.59,15.68c2.48,0,4.5,2.02,4.5,4.5s-2.02,4.5-4.5,4.5-4.5-2.02-4.5-4.5,2.02-4.5,4.5-4.5Z"/>
</svg>